Coordinates
version=1
nRows=18
nColumns=63
inDegrees=yes

Units are S.I. units (second, meters, Newtons, ...)
If the header above contains a line with 'inDegrees', this indicates whether rotational values are in degrees (yes) or radians (no).

endheader
time	pelvis_tilt	pelvis_list	pelvis_rotation	pelvis_tx	pelvis_ty	pelvis_tz	hip_flexion_r	hip_adduction_r	hip_rotation_r	knee_angle_r	knee_angle_r_beta	ankle_angle_r	subtalar_angle_r	mtp_angle_r	hip_flexion_l	hip_adduction_l	hip_rotation_l	knee_angle_l	knee_angle_l_beta	ankle_angle_l	subtalar_angle_l	mtp_angle_l	L5_S1_Flex_Ext	L5_S1_Lat_Bending	L5_S1_axial_rotation	L4_L5_Flex_Ext	L4_L5_Lat_Bending	L4_L5_axial_rotation	L3_L4_Flex_Ext	L3_L4_Lat_Bending	L3_L4_axial_rotation	L2_L3_Flex_Ext	L2_L3_Lat_Bending	L2_L3_axial_rotation	L1_L2_Flex_Ext	L1_L2_Lat_Bending	L1_L2_axial_rotation	L1_T12_Flex_Ext	L1_T12_Lat_Bending	L1_T12_axial_rotation	Abs_r3	Abs_r2	Abs_r1	Abs_t1	Abs_t2	neck_flexion	neck_bending	neck_rotation	arm_flex_r	arm_add_r	arm_rot_r	elbow_flex_r	pro_sup_r	wrist_flex_r	wrist_dev_r	arm_flex_l	arm_add_l	arm_rot_l	elbow_flex_l	pro_sup_l	wrist_flex_l	wrist_dev_l
3.018519	2.043967	-13.759477	99.784186	0.282475	0.364522	0.625439	6.320079	3.249910	-7.552849	11.974369	0.208992	30.859440	15.928154	0.000000	3.766750	-5.549109	-8.628840	11.710477	0.204386	16.424344	-7.954700	0.000000	-0.030624	0.483287	1.829498	-0.056872	0.642772	1.943842	-0.050313	1.175065	1.943842	-0.035000	1.175065	1.600811	-0.028438	0.985519	1.486467	-0.017499	0.748612	1.372124	-0.218746	5.467043	10.175119	0.000000	0.000000	20.071918	-4.615518	-3.831137	-3.794495	-20.083661	62.032916	28.279974	78.257227	-14.157765	1.078317	9.021524	-4.277681	160.296159	0.690001	4.130180	-7.044807	-11.794199
3.037037	2.095740	-13.724397	99.905777	0.281528	0.365142	0.626593	6.514541	3.232807	-7.516307	12.197476	0.212886	31.090312	16.084453	0.000000	3.830222	-5.535638	-8.709169	11.639699	0.203151	16.602126	-7.768791	0.000000	-0.031890	0.486695	1.745259	-0.059223	0.647304	1.854337	-0.052392	1.183350	1.854337	-0.036447	1.183350	1.527101	-0.029613	0.992468	1.418023	-0.018222	0.753891	1.308944	-0.227788	5.505591	9.706605	0.000000	0.000000	19.796301	-4.914642	-3.840009	-3.728649	-20.305440	61.853883	28.755653	79.871838	-14.330252	1.579536	8.416120	-4.640987	159.691662	0.706311	3.720746	-7.230129	-12.923471
3.055556	2.226436	-13.719090	100.110308	0.280304	0.365868	0.627829	6.743029	3.268237	-7.569302	12.369374	0.215886	31.273995	16.263579	0.000000	3.969140	-5.586102	-8.770440	11.592519	0.202328	16.818523	-7.450203	0.000000	-0.029330	0.503938	1.617413	-0.054469	0.670237	1.718501	-0.048186	1.225274	1.718501	-0.033521	1.225274	1.415236	-0.027236	1.027630	1.314148	-0.016759	0.780600	1.213060	-0.209501	5.700645	8.995566	0.000000	0.000000	19.502407	-5.262405	-3.465293	-3.622640	-20.650110	61.351166	29.456105	81.194401	-14.223196	1.714803	7.752211	-4.823017	159.443322	0.751494	3.234852	-8.924716	-14.310513
3.074074	2.402412	-13.713874	100.327705	0.278845	0.366822	0.629030	6.941224	3.335540	-7.643476	12.458735	0.217446	31.346471	16.473286	0.000000	4.097270	-5.668623	-8.865164	11.512730	0.200935	16.986492	-7.068820	0.000000	-0.026976	0.532265	1.465717	-0.050097	0.707912	1.557325	-0.044319	1.294149	1.557325	-0.030831	1.294149	1.282503	-0.025050	1.085394	1.190895	-0.015414	0.824478	1.099288	-0.192688	6.021086	8.151880	0.000000	0.000000	19.164450	-5.666527	-2.784753	-3.399126	-21.209444	60.876212	30.470596	81.868324	-14.099262	1.370426	7.135904	-4.852868	159.327892	0.816877	2.725550	-11.066173	-15.865568
3.092593	2.613162	-13.706440	100.563342	0.277166	0.367996	0.630152	7.101347	3.425188	-7.725707	12.476414	0.217755	31.303739	16.663293	0.000000	4.219208	-5.763610	-8.873861	11.421543	0.199344	17.034289	-6.807479	0.000000	-0.023979	0.569122	1.305273	-0.044531	0.756933	1.386852	-0.039395	1.383764	1.386852	-0.027405	1.383764	1.142113	-0.022267	1.160554	1.060534	-0.013701	0.881570	0.978954	-0.171278	6.438025	7.259534	0.000000	0.000000	18.811314	-6.120426	-1.931755	-3.143557	-22.036367	60.297069	31.927126	82.092884	-14.095576	0.621850	6.640948	-4.780198	159.395691	0.868604	2.258808	-12.829004	-17.453506
3.111111	2.843701	-13.681958	100.815646	0.275298	0.369379	0.631134	7.195505	3.525821	-7.833143	12.418477	0.216743	31.143261	16.857766	0.000000	4.308582	-5.868297	-8.869894	11.312867	0.197447	16.994310	-6.569696	0.000000	-0.021954	0.611424	1.145225	-0.040771	0.813194	1.216802	-0.036068	1.486616	1.216802	-0.025091	1.486616	1.002072	-0.020387	1.246816	0.930495	-0.012545	0.947096	0.858919	-0.156816	6.916551	6.369398	0.000000	0.000000	18.480080	-6.610612	-1.018357	-2.932342	-23.156682	59.643241	33.882064	81.846996	-14.296490	-0.426005	6.288791	-4.663011	159.544183	0.903457	1.914133	-13.777980	-18.990142
3.129630	3.078244	-13.644336	101.059542	0.273326	0.370899	0.631920	7.228684	3.626392	-7.943920	12.304781	0.214759	30.890566	17.043088	0.000000	4.358919	-5.968709	-8.843443	11.188913	0.195283	16.872411	-6.402288	0.000000	-0.019824	0.655238	1.000709	-0.036815	0.871466	1.063253	-0.032569	1.593145	1.063253	-0.022657	1.593145	0.875620	-0.018408	1.336161	0.813076	-0.011327	1.014963	0.750531	-0.141599	7.412179	5.565641	0.000000	0.000000	18.187849	-7.143782	-0.178986	-2.917660	-24.542065	58.794806	36.383292	81.233276	-14.837942	-1.580428	6.089428	-4.556122	159.755957	0.919144	1.710929	-13.445064	-20.361631
3.148148	3.301309	-13.592630	101.307051	0.271296	0.372468	0.632490	7.192840	3.716775	-8.059545	12.134350	0.211784	30.569735	17.212291	0.000000	4.373630	-6.053689	-8.766562	11.062686	0.193080	16.684150	-6.316061	0.000000	-0.018119	0.697082	0.878084	-0.033648	0.927119	0.932964	-0.029767	1.694886	0.932964	-0.020708	1.694886	0.768324	-0.016825	1.421490	0.713443	-0.010353	1.079780	0.658563	-0.129420	7.885533	4.883640	0.000000	0.000000	17.961825	-7.713473	0.500696	-3.247135	-26.081969	57.519469	39.375687	80.524135	-15.403508	-2.602303	6.038649	-4.507646	159.965899	0.918084	1.637977	-11.467232	-21.525904
3.166667	3.509891	-13.533294	101.548530	0.269246	0.374027	0.632852	7.100775	3.795384	-8.163692	11.920021	0.208044	30.178170	17.350501	0.000000	4.359501	-6.122473	-8.648282	10.936870	0.190884	16.433211	-6.313151	0.000000	-0.015983	0.736279	0.786146	-0.029683	0.979250	0.835280	-0.026259	1.790188	0.835280	-0.018267	1.790188	0.687878	-0.014842	1.501419	0.638744	-0.009133	1.140496	0.589610	-0.114168	8.328930	4.372309	0.000000	0.000000	17.804783	-8.356977	0.979830	-3.990844	-27.692504	55.774419	42.760856	79.833309	-15.831353	-3.381795	6.122840	-4.530683	160.176742	0.900942	1.662290	-7.821546	-22.442563
3.185185	3.701500	-13.472041	101.774408	0.267207	0.375540	0.633033	6.971979	3.859559	-8.267058	11.686210	0.203963	29.718246	17.436837	0.000000	4.325422	-6.174716	-8.507230	10.813480	0.188731	16.128795	-6.389488	0.000000	-0.012577	0.772906	0.730233	-0.023357	1.027965	0.775872	-0.020663	1.879244	0.775872	-0.014374	1.879244	0.638954	-0.011679	1.576110	0.593314	-0.007187	1.197232	0.547675	-0.089837	8.743269	4.061336	0.000000	0.000000	17.692161	-9.091300	1.283781	-5.168448	-29.310688	53.608365	46.425567	79.214803	-16.019211	-3.881113	6.312827	-4.625383	160.328723	0.868937	1.678265	-2.717877	-23.119916
3.203704	3.874804	-13.406977	101.979263	0.265207	0.377006	0.633074	6.813704	3.909392	-8.373103	11.442458	0.199709	29.191062	17.471578	0.000000	4.269974	-6.214510	-8.391185	10.686732	0.186519	15.798974	-6.483104	0.000000	-0.007882	0.807071	0.710002	-0.014637	1.073405	0.754377	-0.012949	1.962313	0.754377	-0.009008	1.962313	0.621252	-0.007319	1.645779	0.576877	-0.004503	1.250153	0.532502	-0.056297	9.129750	3.948819	0.000000	0.000000	17.567672	-9.884758	1.454232	-6.741125	-30.891728	51.127971	50.253413	78.709926	-15.800181	-4.045240	6.584374	-4.785388	160.292173	0.821420	1.616443	3.610212	-23.598076
3.222222	4.044417	-13.330670	102.168517	0.263227	0.378459	0.633004	6.622521	3.960035	-8.500265	11.179656	0.195122	28.594419	17.483804	0.000000	4.197125	-6.258723	-8.305935	10.563124	0.184361	15.459505	-6.585680	0.000000	-0.001583	0.841057	0.721563	-0.002940	1.118606	0.766661	-0.002601	2.044947	0.766661	-0.001810	2.044947	0.631368	-0.001470	1.715084	0.586270	-0.000905	1.302798	0.541172	-0.011309	9.514210	4.013117	0.000000	0.000000	17.379092	-10.705419	1.557862	-8.655931	-32.481115	48.512656	54.173933	78.286073	-15.278807	-3.902072	6.908313	-4.988455	159.815761	0.761610	1.512095	10.889851	-23.938352
3.240741	4.459799	-13.029588	102.305934	0.260133	0.381412	0.633544	6.269479	4.221776	-8.674976	10.844906	0.189279	27.319983	17.503144	0.000000	3.955551	-6.511512	-8.276407	10.381108	0.181185	14.799034	-6.834668	0.000000	-0.003294	0.947321	0.912412	-0.006117	1.259937	0.969438	-0.005412	2.303316	0.969438	-0.003765	2.303316	0.798361	-0.003059	1.931777	0.741335	-0.001882	1.467400	0.684309	-0.023528	10.716283	5.074565	0.000000	0.000000	16.519600	-12.297860	1.699051	-12.174318	-33.958648	44.287114	58.314093	78.016273	-14.277328	-3.235789	9.211322	-3.083376	165.342516	-4.173135	-3.553228	23.812177	-25.510774
3.259259	4.758380	-12.763526	102.432190	0.257571	0.383907	0.633849	5.927757	4.395720	-8.845226	10.550971	0.184149	26.267601	17.497920	0.000000	3.714922	-6.685169	-8.322641	10.202917	0.178074	14.276226	-6.963718	0.000000	-0.002877	1.023220	1.091589	-0.005343	1.360883	1.159814	-0.004727	2.487857	1.159814	-0.003288	2.487857	0.955141	-0.002672	2.086550	0.886916	-0.001644	1.584968	0.818692	-0.020552	11.574869	6.071093	0.000000	0.000000	15.671046	-13.464986	1.606204	-15.508090	-35.416959	40.539035	62.429559	77.858473	-12.717625	-2.093233	10.696928	-2.160078	167.117801	-6.607865	-5.912877	34.417478	-26.065241
3.277778	4.949724	-12.526158	102.565027	0.255526	0.385986	0.633965	5.591844	4.492439	-9.028057	10.285085	0.179509	25.423804	17.488994	0.000000	3.485386	-6.792369	-8.458715	10.043303	0.175289	13.883842	-6.960533	0.000000	-0.000876	1.069778	1.248644	-0.001627	1.422805	1.326684	-0.001439	2.601058	1.326684	-0.001001	2.601058	1.092564	-0.000813	2.181491	1.014523	-0.000501	1.657086	0.936483	-0.006257	12.101542	6.944583	0.000000	0.000000	14.835915	-14.148445	1.333874	-18.574110	-36.887233	37.260836	66.534101	77.875870	-10.679823	-0.469255	11.348034	-2.166583	165.425067	-6.658089	-5.819198	42.738540	-25.724363
3.296296	5.058433	-12.309645	102.693756	0.253927	0.387672	0.633940	5.269393	4.533920	-9.204496	10.058107	0.175547	24.783516	17.482611	0.000000	3.261277	-6.854832	-8.687483	9.896666	0.172729	13.639036	-6.804522	0.000000	0.002679	1.092477	1.383981	0.004976	1.452995	1.470480	0.004402	2.656249	1.470480	0.003062	2.656249	1.210983	0.002488	2.227779	1.124485	0.001531	1.692247	1.037986	0.019139	12.358320	7.697287	0.000000	0.000000	13.985457	-14.408222	0.949923	-21.438154	-38.402614	34.096613	70.678330	78.330064	-8.149408	1.545765	11.226742	-3.020065	160.810554	-4.535225	-3.548813	48.706339	-24.882204
3.314815	5.096904	-12.110567	102.810961	0.252740	0.388988	0.633819	4.963793	4.533368	-9.344659	9.870583	0.172274	24.332998	17.471999	0.000000	3.040416	-6.877765	-8.967938	9.755541	0.170266	13.526038	-6.556547	0.000000	0.006306	1.094805	1.489997	0.011710	1.456091	1.583122	0.010360	2.661909	1.583122	0.007207	2.661909	1.303747	0.005856	2.232527	1.210622	0.003603	1.695853	1.117498	0.045042	12.384655	8.286915	0.000000	0.000000	13.131802	-14.301852	0.539180	-24.077266	-39.947948	31.168234	74.822377	79.060607	-5.345341	3.713447	10.402597	-4.648816	153.767472	-0.432471	0.622705	52.148842	-23.863122
3.333333	5.085863	-11.935337	102.947483	0.251866	0.389921	0.633622	4.681359	4.504698	-9.465586	9.715462	0.169567	24.054536	17.456287	0.000000	2.848961	-6.874360	-9.231545	9.637490	0.168206	13.550139	-6.241642	0.000000	0.010931	1.081297	1.559555	0.020300	1.438125	1.657027	0.017958	2.629065	1.657027	0.012493	2.629065	1.364611	0.010150	2.204981	1.267139	0.006246	1.674929	1.169666	0.078079	12.231846	8.673778	0.000000	0.000000	12.290397	-13.896429	0.159570	-26.563231	-41.479369	28.216160	78.930996	80.211512	-2.259903	5.841341	8.946011	-6.949642	144.948537	5.436844	6.397306	52.903600	-22.850265
